# xmcd
#
# Track frame offsets: 
#        150
#        22597
#        35083
#        51437
#        69125
#        84891
#        97232
#        121778
#        136570
#        156779
#        170980
#        187252
#        201432
#        213177
#        228253
#        243614
#        255831
#        268384
#
# Disc length: 3838 seconds
#
# Revision: 1
# Processed by: cddbd v1.5.2PL0 Copyright (c) Steve Scherf et al.
# Submitted via: ExactAudioCopy v0.99pb5
#
DISCID=f90efc12
DTITLE=Lightnin' Hopkins - Texas Blues Man
DYEAR=1968
DGENRE=Blues
TTITLE0=Tom More Blues
TTITLE1=Watch My Fingers
TTITLE2=Little Antoinette
TTITLE3=Love is Like a Hydrant
TTITLE4=Cut Me Out Baby
TTITLE5=Take a Walk
TTITLE6=Slavery
TTITLE7=I Would if A Could
TTITLE8=Bad Russell Blues
TTITLE9=At Home Blues
TTITLE10=Gin Bottle Blues [bonus]
TTITLE11=I'm Leaving You Now [bonus]
TTITLE12=Come on Baby [bonus]
TTITLE13=Money Taker [bonus]
TTITLE14=Prison Blues [bonus]
TTITLE15=Mama's Fight [bonus]
TTITLE16=My Woman [bonus]
TTITLE17=Gabriel [bonus]
EXTD=
EXTT0=
EXTT1=
EXTT2=
EXTT3=
EXTT4=
EXTT5=
EXTT6=
EXTT7=
EXTT8=
EXTT9=
EXTT10=
EXTT11=
EXTT12=
EXTT13=
EXTT14=
EXTT15=
EXTT16=
EXTT17=
PLAYORDER=
